<?xml version="1.0" encoding="UTF-8"?>
<svg width="48" height="48" viewBox="0 0 48 48" preserveAspectRatio="xMidYMid meet" 
     xmlns="http://www.w3.org/2000/svg"
     role="img"
     aria-labelledby="logoTitle logoDesc">
  <title id="logoTitle">Provocative Cloud</title>
  <desc id="logoDesc">Logo showing a GPU server with carbon capture technology</desc>
  
  <!-- Theme-aware color definitions -->
  <defs>
    <style>
      .logo-primary { fill: var(--logo-primary, currentColor); }
      .logo-accent { fill: var(--logo-accent, #0066CC); }
      .logo-background { fill: var(--logo-background, #FFFFFF); }
      @media (prefers-color-scheme: dark) {
        .logo-primary { fill: var(--logo-primary, #FFFFFF); }
        .logo-accent { fill: var(--logo-accent, #3399FF); }
        .logo-background { fill: var(--logo-background, #1A1A1A); }
      }
    </style>
  </defs>

  <!-- GPU Server Base -->
  <rect x="8" y="12" width="32" height="24" rx="2" class="logo-primary"/>
  
  <!-- GPU Card -->
  <rect x="12" y="16" width="24" height="16" rx="1" class="logo-accent"/>
  <rect x="14" y="18" width="20" height="2" class="logo-primary" opacity="0.2"/>
  <rect x="14" y="22" width="20" height="2" class="logo-primary" opacity="0.2"/>
  <rect x="14" y="26" width="20" height="2" class="logo-primary" opacity="0.2"/>
  
  <!-- Cooling/Carbon Capture Visualization -->
  <path d="M40 24c2 0 4-2 4-4s-2-4-4-4c0-2-2-4-4-4s-4 2-4 4h-2c0-3.3 2.7-6 6-6s6 2.7 6 6c2.2 0 4 1.8 4 4s-1.8 4-4 4"
        class="logo-accent" opacity="0.7"/>
  
  <!-- Carbon Molecule Representation -->
  <circle cx="42" cy="16" r="1.5" class="logo-accent"/>
  <circle cx="44" cy="18" r="1" class="logo-accent"/>
  <circle cx="40" cy="18" r="1" class="logo-accent"/>
  
  <!-- Server Status Indicators -->
  <circle cx="11" cy="15" r="1" class="logo-primary" opacity="0.8"/>
  <circle cx="14" cy="15" r="1" class="logo-primary" opacity="0.8"/>
  
  <!-- Ventilation Pattern -->
  <rect x="36" y="16" width="1" height="16" class="logo-primary" opacity="0.2"/>
  <rect x="38" y="16" width="1" height="16" class="logo-primary" opacity="0.2"/>
</svg>